<svg width="31" height="31" viewBox="0 0 31 31" fill="none" xmlns="http://www.w3.org/2000/svg">
<rect width="31" height="31" rx="7"/>
<mask id="mask0_656_3020" style="mask-type:alpha" maskUnits="userSpaceOnUse" x="5" y="5" width="21" height="21">
<rect x="5" y="5" width="21" height="21" fill="#D9D9D9"/>
</mask>
<g mask="url(#mask0_656_3020)">
<path d="M14.625 19.875H16.375V14.625H14.625V19.875ZM15.5 12.875C15.7479 12.875 15.9557 12.7911 16.1234 12.6234C16.2911 12.4557 16.375 12.2479 16.375 12C16.375 11.7521 16.2911 11.5443 16.1234 11.3766C15.9557 11.2089 15.7479 11.125 15.5 11.125C15.2521 11.125 15.0443 11.2089 14.8766 11.3766C14.7089 11.5443 14.625 11.7521 14.625 12C14.625 12.2479 14.7089 12.4557 14.8766 12.6234C15.0443 12.7911 15.2521 12.875 15.5 12.875ZM15.5 24.25C14.2896 24.25 13.1521 24.0203 12.0875 23.5609C11.0229 23.1016 10.0969 22.4781 9.30938 21.6906C8.52187 20.9031 7.89844 19.9771 7.43906 18.9125C6.97969 17.8479 6.75 16.7104 6.75 15.5C6.75 14.2896 6.97969 13.1521 7.43906 12.0875C7.89844 11.0229 8.52187 10.0969 9.30938 9.30938C10.0969 8.52187 11.0229 7.89844 12.0875 7.43906C13.1521 6.97969 14.2896 6.75 15.5 6.75C16.7104 6.75 17.8479 6.97969 18.9125 7.43906C19.9771 7.89844 20.9031 8.52187 21.6906 9.30938C22.4781 10.0969 23.1016 11.0229 23.5609 12.0875C24.0203 13.1521 24.25 14.2896 24.25 15.5C24.25 16.7104 24.0203 17.8479 23.5609 18.9125C23.1016 19.9771 22.4781 20.9031 21.6906 21.6906C20.9031 22.4781 19.9771 23.1016 18.9125 23.5609C17.8479 24.0203 16.7104 24.25 15.5 24.25ZM15.5 22.5C17.4542 22.5 19.1094 21.8219 20.4656 20.4656C21.8219 19.1094 22.5 17.4542 22.5 15.5C22.5 13.5458 21.8219 11.8906 20.4656 10.5344C19.1094 9.17813 17.4542 8.5 15.5 8.5C13.5458 8.5 11.8906 9.17813 10.5344 10.5344C9.17813 11.8906 8.5 13.5458 8.5 15.5C8.5 17.4542 9.17813 19.1094 10.5344 20.4656C11.8906 21.8219 13.5458 22.5 15.5 22.5Z" fill="white"/>
</g>
</svg>
