<svg width="31" height="31" viewBox="0 0 31 31" fill="none" xmlns="http://www.w3.org/2000/svg">
<rect width="31" height="31" rx="7"/>
<mask id="mask0_656_2992" style="mask-type:alpha" maskUnits="userSpaceOnUse" x="6" y="6" width="20" height="20">
<rect x="6" y="6" width="20" height="20" fill="#D9D9D9"/>
</mask>
<g mask="url(#mask0_656_2992)">
<path d="M12.6666 20.9998H19.3333V19.3332H12.6666V20.9998ZM12.6666 17.6665H19.3333V15.9998H12.6666V17.6665ZM10.9999 24.3332C10.5416 24.3332 10.1492 24.17 9.82284 23.8436C9.49645 23.5172 9.33325 23.1248 9.33325 22.6665V9.33317C9.33325 8.87484 9.49645 8.48248 9.82284 8.15609C10.1492 7.8297 10.5416 7.6665 10.9999 7.6665H17.6666L22.6666 12.6665V22.6665C22.6666 23.1248 22.5034 23.5172 22.177 23.8436C21.8506 24.17 21.4583 24.3332 20.9999 24.3332H10.9999ZM16.8333 13.4998V9.33317H10.9999V22.6665H20.9999V13.4998H16.8333Z" fill="white"/>
</g>
</svg>
