<svg width="31" height="31" viewBox="0 0 31 31" fill="none" xmlns="http://www.w3.org/2000/svg">
<rect width="31" height="31" rx="7"/>
<mask id="mask0_666_199" style="mask-type:alpha" maskUnits="userSpaceOnUse" x="6" y="6" width="20" height="20">
<rect x="6" y="6" width="20" height="20" fill="#D9D9D9"/>
</mask>
<g mask="url(#mask0_666_199)">
<path d="M11.8333 17.6667C11.3749 17.6667 10.9826 17.5035 10.6562 17.1771C10.3298 16.8507 10.1666 16.4583 10.1666 16C10.1666 15.5417 10.3298 15.1493 10.6562 14.8229C10.9826 14.4965 11.3749 14.3333 11.8333 14.3333C12.2916 14.3333 12.6839 14.4965 13.0103 14.8229C13.3367 15.1493 13.4999 15.5417 13.4999 16C13.4999 16.4583 13.3367 16.8507 13.0103 17.1771C12.6839 17.5035 12.2916 17.6667 11.8333 17.6667ZM11.8333 21C10.4444 21 9.26381 20.5139 8.29159 19.5417C7.31936 18.5694 6.83325 17.3889 6.83325 16C6.83325 14.6111 7.31936 13.4306 8.29159 12.4583C9.26381 11.4861 10.4444 11 11.8333 11C12.7638 11 13.6076 11.2292 14.3645 11.6875C15.1214 12.1458 15.7221 12.75 16.1666 13.5H23.4999L25.9999 16L22.2499 19.75L20.5833 18.5L18.9166 19.75L17.1458 18.5H16.1666C15.7221 19.25 15.1214 19.8542 14.3645 20.3125C13.6076 20.7708 12.7638 21 11.8333 21ZM11.8333 19.3333C12.611 19.3333 13.2951 19.0972 13.8853 18.625C14.4756 18.1528 14.868 17.5556 15.0624 16.8333H17.6666L18.8749 17.6875L20.5833 16.4167L22.0624 17.5625L23.6249 16L22.7916 15.1667H15.0624C14.868 14.4444 14.4756 13.8472 13.8853 13.375C13.2951 12.9028 12.611 12.6667 11.8333 12.6667C10.9166 12.6667 10.1319 12.9931 9.47909 13.6458C8.82631 14.2986 8.49992 15.0833 8.49992 16C8.49992 16.9167 8.82631 17.7014 9.47909 18.3542C10.1319 19.0069 10.9166 19.3333 11.8333 19.3333Z" fill="white"/>
</g>
</svg>
