<svg width="20" height="19" viewBox="0 0 20 19" fill="none" xmlns="http://www.w3.org/2000/svg">
<path d="M2 15C1.45 15 0.979167 14.8042 0.5875 14.4125C0.195833 14.0208 0 13.55 0 13V5.15C0 4.9 0.0708333 4.65417 0.2125 4.4125C0.354167 4.17083 0.55 3.98333 0.8 3.85L8.5 0L16.05 3.85C16.25 3.95 16.4208 4.10833 16.5625 4.325C16.7042 4.54167 16.8 4.76667 16.85 5H13.925L8.5 2.25L2 5.475V15ZM5 19C4.45 19 3.97917 18.8042 3.5875 18.4125C3.19583 18.0208 3 17.55 3 17V8C3 7.45 3.19583 6.97917 3.5875 6.5875C3.97917 6.19583 4.45 6 5 6H18C18.55 6 19.0208 6.19583 19.4125 6.5875C19.8042 6.97917 20 7.45 20 8V17C20 17.55 19.8042 18.0208 19.4125 18.4125C19.0208 18.8042 18.55 19 18 19H5ZM11.5 13.35L5 10V17H18V10L11.5 13.35ZM11.5 11.35L18 8H5L11.5 11.35Z" fill="#111111"/>
</svg>
