<svg width="25" height="25" viewBox="0 0 25 25" fill="none" xmlns="http://www.w3.org/2000/svg">
<mask id="mask0_666_226" style="mask-type:alpha" maskUnits="userSpaceOnUse" x="0" y="0" width="25" height="25">
<rect x="0.930664" y="0.415039" width="24" height="24" fill="#D9D9D9"/>
</mask>
<g mask="url(#mask0_666_226)">
<path d="M9.53066 22.915L7.63066 19.715L4.03066 18.915L4.38066 15.215L1.93066 12.415L4.38066 9.61504L4.03066 5.91504L7.63066 5.11504L9.53066 1.91504L12.9307 3.36504L16.3307 1.91504L18.2307 5.11504L21.8307 5.91504L21.4807 9.61504L23.9307 12.415L21.4807 15.215L21.8307 18.915L18.2307 19.715L16.3307 22.915L12.9307 21.465L9.53066 22.915ZM10.3807 20.365L12.9307 19.265L15.5307 20.365L16.9307 17.965L19.6807 17.315L19.4307 14.515L21.2807 12.415L19.4307 10.265L19.6807 7.46504L16.9307 6.86504L15.4807 4.46504L12.9307 5.56504L10.3307 4.46504L8.93066 6.86504L6.18066 7.46504L6.43066 10.265L4.58066 12.415L6.43066 14.515L6.18066 17.365L8.93066 17.965L10.3807 20.365ZM11.8807 15.965L17.5307 10.315L16.1307 8.86504L11.8807 13.115L9.73066 11.015L8.33066 12.415L11.8807 15.965Z" fill="#008805"/>
</g>
</svg>
