<svg width="31" height="31" viewBox="0 0 31 31" fill="none" xmlns="http://www.w3.org/2000/svg">
<rect width="31" height="31" rx="7"/>
<mask id="mask0_656_2978" style="mask-type:alpha" maskUnits="userSpaceOnUse" x="5" y="5" width="21" height="21">
<rect x="5" y="5" width="21" height="21" fill="#D9D9D9"/>
</mask>
<g mask="url(#mask0_656_2978)">
<path d="M9.375 23.375C8.89375 23.375 8.48177 23.2036 8.13906 22.8609C7.79635 22.5182 7.625 22.1062 7.625 21.625V9.375C7.625 8.89375 7.79635 8.48177 8.13906 8.13906C8.48177 7.79635 8.89375 7.625 9.375 7.625H21.625C22.1062 7.625 22.5182 7.79635 22.8609 8.13906C23.2036 8.48177 23.375 8.89375 23.375 9.375V21.625C23.375 22.1062 23.2036 22.5182 22.8609 22.8609C22.5182 23.2036 22.1062 23.375 21.625 23.375H9.375ZM9.375 21.625H21.625V9.375H9.375V21.625ZM10.25 19.875H20.75L17.4688 15.5L14.8438 19L12.875 16.375L10.25 19.875Z" fill="white"/>
</g>
</svg>
