<svg width="31" height="31" viewBox="0 0 31 31" fill="none" xmlns="http://www.w3.org/2000/svg">
<rect width="31" height="31" rx="7"/>
<mask id="mask0_656_3008" style="mask-type:alpha" maskUnits="userSpaceOnUse" x="6" y="6" width="20" height="20">
<rect x="6" y="6" width="20" height="20" fill="#D9D9D9"/>
</mask>
<g mask="url(#mask0_656_3008)">
<path d="M15.9582 21.0003C16.2498 21.0003 16.4964 20.8996 16.6978 20.6982C16.8991 20.4969 16.9998 20.2503 16.9998 19.9587C16.9998 19.667 16.8991 19.4205 16.6978 19.2191C16.4964 19.0177 16.2498 18.917 15.9582 18.917C15.6665 18.917 15.42 19.0177 15.2186 19.2191C15.0172 19.4205 14.9165 19.667 14.9165 19.9587C14.9165 20.2503 15.0172 20.4969 15.2186 20.6982C15.42 20.8996 15.6665 21.0003 15.9582 21.0003ZM15.2082 17.792H16.7498C16.7498 17.3337 16.8019 16.9725 16.9061 16.7087C17.0103 16.4448 17.3054 16.0837 17.7915 15.6253C18.1526 15.2642 18.4373 14.9205 18.6457 14.5941C18.854 14.2677 18.9582 13.8753 18.9582 13.417C18.9582 12.6392 18.6734 12.042 18.104 11.6253C17.5346 11.2087 16.8609 11.0003 16.0832 11.0003C15.2915 11.0003 14.6491 11.2087 14.1561 11.6253C13.663 12.042 13.3193 12.542 13.1248 13.1253L14.4998 13.667C14.5693 13.417 14.7255 13.1462 14.9686 12.8545C15.2116 12.5628 15.5832 12.417 16.0832 12.417C16.5276 12.417 16.8609 12.5385 17.0832 12.7816C17.3054 13.0246 17.4165 13.292 17.4165 13.5837C17.4165 13.8614 17.3332 14.1219 17.1665 14.3649C16.9998 14.608 16.7915 14.8337 16.5415 15.042C15.9304 15.5837 15.5554 15.9934 15.4165 16.2712C15.2776 16.5489 15.2082 17.0559 15.2082 17.792ZM15.9998 24.3337C14.8471 24.3337 13.7637 24.1149 12.7498 23.6774C11.7359 23.2399 10.854 22.6462 10.104 21.8962C9.354 21.1462 8.76025 20.2642 8.32275 19.2503C7.88525 18.2364 7.6665 17.1531 7.6665 16.0003C7.6665 14.8475 7.88525 13.7642 8.32275 12.7503C8.76025 11.7364 9.354 10.8545 10.104 10.1045C10.854 9.35449 11.7359 8.76074 12.7498 8.32324C13.7637 7.88574 14.8471 7.66699 15.9998 7.66699C17.1526 7.66699 18.2359 7.88574 19.2498 8.32324C20.2637 8.76074 21.1457 9.35449 21.8957 10.1045C22.6457 10.8545 23.2394 11.7364 23.6769 12.7503C24.1144 13.7642 24.3332 14.8475 24.3332 16.0003C24.3332 17.1531 24.1144 18.2364 23.6769 19.2503C23.2394 20.2642 22.6457 21.1462 21.8957 21.8962C21.1457 22.6462 20.2637 23.2399 19.2498 23.6774C18.2359 24.1149 17.1526 24.3337 15.9998 24.3337ZM15.9998 22.667C17.8609 22.667 19.4373 22.0212 20.729 20.7295C22.0207 19.4378 22.6665 17.8614 22.6665 16.0003C22.6665 14.1392 22.0207 12.5628 20.729 11.2712C19.4373 9.97949 17.8609 9.33366 15.9998 9.33366C14.1387 9.33366 12.5623 9.97949 11.2707 11.2712C9.979 12.5628 9.33317 14.1392 9.33317 16.0003C9.33317 17.8614 9.979 19.4378 11.2707 20.7295C12.5623 22.0212 14.1387 22.667 15.9998 22.667Z" fill="white"/>
</g>
</svg>
