<svg width="16" height="16" viewBox="0 0 16 16" fill="none" xmlns="http://www.w3.org/2000/svg">
<path d="M8.41231 0.000928382C8.96293 -0.0011845 9.51354 0.00434938 10.064 0.0175283L10.2104 0.0228101C10.3794 0.0288464 10.5461 0.0363917 10.7476 0.0454462C11.5504 0.0831732 12.0982 0.209936 12.5789 0.396307C13.0769 0.58796 13.4964 0.847521 13.9159 1.26705C14.2995 1.64402 14.5964 2.10002 14.7859 2.60333C14.9723 3.08398 15.099 3.63253 15.1368 4.43536C15.1458 4.63606 15.1534 4.80357 15.1594 4.97259L15.1639 5.11897C15.1773 5.66917 15.1831 6.21954 15.1813 6.7699L15.182 7.33279V8.32123C15.1839 8.87185 15.1781 9.42246 15.1647 9.97292L15.1602 10.1193C15.1541 10.2883 15.1466 10.4551 15.1375 10.6565C15.0998 11.4594 14.9715 12.0072 14.7859 12.4878C14.597 12.9916 14.3001 13.448 13.9159 13.8248C13.5386 14.2084 13.0824 14.5052 12.5789 14.6948C12.0982 14.8812 11.5504 15.008 10.7476 15.0457C10.5461 15.0547 10.3794 15.0623 10.2104 15.0683L10.064 15.0728C9.51354 15.0863 8.96293 15.092 8.41231 15.0902L7.84943 15.091H6.86173C6.31112 15.0928 5.7605 15.087 5.21005 15.0736L5.06367 15.0691C4.88455 15.0626 4.70547 15.055 4.52644 15.0464C3.72361 15.0087 3.17581 14.8804 2.69442 14.6948C2.1909 14.5057 1.73482 14.2088 1.35813 13.8248C0.974101 13.4478 0.676947 12.9915 0.487389 12.4878C0.301018 12.0072 0.174255 11.4594 0.136528 10.6565C0.128125 10.4775 0.120579 10.2984 0.113892 10.1193L0.110119 9.97292C0.0962082 9.42247 0.0899197 8.87185 0.0912557 8.32123V6.7699C0.0891498 6.21954 0.0946837 5.66918 0.107856 5.11897L0.113137 4.97259C0.119174 4.80357 0.126719 4.63606 0.135773 4.43536C0.1735 3.63177 0.300263 3.08473 0.486634 2.60333C0.676305 2.09977 0.974039 1.6439 1.35888 1.2678C1.73532 0.883552 2.19111 0.586128 2.69442 0.396307C3.17581 0.209936 3.72285 0.0831732 4.52644 0.0454462L5.06367 0.0228101L5.21005 0.0190374C5.76025 0.00513341 6.31061 -0.00115509 6.86098 0.000173897L8.41231 0.000928382ZM7.63665 3.77362C7.13677 3.76655 6.64047 3.85891 6.1766 4.04531C5.71272 4.23171 5.29052 4.50845 4.93453 4.85945C4.57853 5.21044 4.29585 5.62869 4.1029 6.08988C3.90996 6.55107 3.8106 7.04602 3.8106 7.54594C3.8106 8.04587 3.90996 8.54081 4.1029 9.00201C4.29585 9.4632 4.57853 9.88145 4.93453 10.2324C5.29052 10.5834 5.71272 10.8602 6.1766 11.0466C6.64047 11.233 7.13677 11.3253 7.63665 11.3183C8.63723 11.3183 9.59683 10.9208 10.3043 10.2133C11.0119 9.50575 11.4093 8.54615 11.4093 7.54557C11.4093 6.54498 11.0119 5.58538 10.3043 4.87787C9.59683 4.17035 8.63723 3.77362 7.63665 3.77362ZM7.63665 5.2827C7.93734 5.27716 8.23611 5.33159 8.51553 5.44282C8.79495 5.55405 9.0494 5.71984 9.26402 5.93051C9.47864 6.14118 9.64913 6.3925 9.76554 6.6698C9.88194 6.9471 9.94192 7.24482 9.94197 7.54556C9.94202 7.8463 9.88214 8.14403 9.76583 8.42137C9.64952 8.69871 9.47911 8.95009 9.26456 9.16084C9.05001 9.37158 8.79561 9.53745 8.51623 9.64877C8.23685 9.76009 7.93809 9.81462 7.6374 9.80918C7.03705 9.80918 6.46129 9.5707 6.03678 9.14619C5.61227 8.72168 5.37378 8.14591 5.37378 7.54557C5.37378 6.94522 5.61227 6.36946 6.03678 5.94495C6.46129 5.52044 7.03705 5.28195 7.6374 5.28195L7.63665 5.2827ZM11.598 2.64182C11.3546 2.65156 11.1243 2.75511 10.9556 2.93078C10.7868 3.10645 10.6925 3.34062 10.6925 3.58423C10.6925 3.82785 10.7868 4.06202 10.9556 4.23769C11.1243 4.41336 11.3546 4.51691 11.598 4.52665C11.8481 4.52665 12.088 4.42728 12.2649 4.25041C12.4418 4.07353 12.5412 3.83363 12.5412 3.58348C12.5412 3.33334 12.4418 3.09344 12.2649 2.91656C12.088 2.73968 11.8481 2.64031 11.598 2.64031V2.64182Z" fill="white"/>
</svg>
