<svg width="31" height="31" viewBox="0 0 31 31" fill="none" xmlns="http://www.w3.org/2000/svg">
<rect width="31" height="31" rx="7"/>
<mask id="mask0_656_3034" style="mask-type:alpha" maskUnits="userSpaceOnUse" x="6" y="6" width="19" height="19">
<rect x="6" y="6" width="19" height="19" fill="#D9D9D9"/>
</mask>
<g mask="url(#mask0_656_3034)">
<path d="M15.4999 23.4168L14.7083 21.0418H9.16659C8.73117 21.0418 8.35843 20.8868 8.04836 20.5767C7.73829 20.2667 7.58325 19.8939 7.58325 19.4585V9.16683C7.58325 8.73141 7.73829 8.35867 8.04836 8.0486C8.35843 7.73853 8.73117 7.5835 9.16659 7.5835H13.9166L14.6093 9.9585H21.8333C22.2951 9.9585 22.6744 10.1069 22.9713 10.4038C23.2681 10.7007 23.4166 11.08 23.4166 11.5418V21.8335C23.4166 22.2689 23.2681 22.6417 22.9713 22.9517C22.6744 23.2618 22.2951 23.4168 21.8333 23.4168H15.4999ZM11.6603 17.5585C12.5708 17.5585 13.3195 17.2649 13.9067 16.6778C14.4938 16.0906 14.7874 15.3286 14.7874 14.3918C14.7874 14.2863 14.7841 14.1906 14.7775 14.1049C14.7709 14.0191 14.7544 13.93 14.728 13.8377H11.601V15.0647H13.3624C13.2569 15.4342 13.0556 15.7212 12.7588 15.9257C12.4619 16.1302 12.1023 16.2325 11.6801 16.2325C11.1655 16.2325 10.7235 16.0477 10.3541 15.6783C9.98464 15.3088 9.79992 14.8536 9.79992 14.3127C9.79992 13.7717 9.98464 13.3165 10.3541 12.947C10.7235 12.5776 11.1655 12.3929 11.6801 12.3929C11.9176 12.3929 12.1419 12.4358 12.353 12.5215C12.5642 12.6073 12.7555 12.7359 12.927 12.9075L13.8968 11.9772C13.6197 11.687 13.2866 11.4627 12.8973 11.3043C12.5081 11.146 12.0958 11.0668 11.6603 11.0668C10.7763 11.0668 10.0209 11.3802 9.39419 12.0069C8.76745 12.6337 8.45409 13.4022 8.45409 14.3127C8.45409 15.2231 8.76745 15.9917 9.39419 16.6184C10.0209 17.2451 10.7763 17.5585 11.6603 17.5585ZM16.9645 17.9543L17.3999 17.5387C17.2152 17.3144 17.047 17.0967 16.8952 16.8856C16.7435 16.6745 16.5951 16.4502 16.4499 16.2127L16.9645 17.9543ZM17.9541 16.945C18.3235 16.5095 18.6039 16.0939 18.7952 15.6981C18.9866 15.3022 19.1152 14.9922 19.1812 14.7679H16.0343L16.2718 15.5991H17.0635C17.169 15.797 17.2944 16.0114 17.4395 16.2423C17.5846 16.4733 17.7562 16.7075 17.9541 16.945ZM16.2916 22.6252H21.8333C22.0708 22.6252 22.2621 22.5493 22.4072 22.3976C22.5523 22.2458 22.6249 22.0578 22.6249 21.8335V11.5418C22.6249 11.3043 22.5523 11.113 22.4072 10.9679C22.2621 10.8227 22.0708 10.7502 21.8333 10.7502H14.8468L15.777 13.9564H17.3405V13.1252H18.152V13.9564H21.0416V14.7679H20.0322C19.9003 15.2693 19.7023 15.7575 19.4385 16.2325C19.1746 16.7075 18.8645 17.1495 18.5083 17.5585L20.6655 19.6762L20.0916 20.2502L17.9541 18.1127L17.2416 18.845L17.8749 21.0418L16.2916 22.6252Z" fill="white"/>
</g>
</svg>
