<svg width="31" height="31" viewBox="0 0 31 31" fill="none" xmlns="http://www.w3.org/2000/svg">
<rect width="31" height="31" rx="7"/>
<mask id="mask0_656_3028" style="mask-type:alpha" maskUnits="userSpaceOnUse" x="5" y="5" width="21" height="21">
<rect x="5" y="5" width="21" height="21" fill="#D9D9D9"/>
</mask>
<g mask="url(#mask0_656_3028)">
<path d="M14.625 16.375V7.625H16.375V16.375H14.625ZM15.5 23.375C14.4208 23.375 13.4036 23.1672 12.4484 22.7516C11.4932 22.3359 10.6583 21.7708 9.94375 21.0563C9.22917 20.3417 8.66406 19.5068 8.24844 18.5516C7.83281 17.5964 7.625 16.5792 7.625 15.5C7.625 14.3333 7.86562 13.2323 8.34688 12.1969C8.82812 11.1615 9.50625 10.2646 10.3813 9.50625L11.6063 10.7313C10.9063 11.3146 10.3594 12.0219 9.96563 12.8531C9.57187 13.6844 9.375 14.5667 9.375 15.5C9.375 17.1917 9.97292 18.6354 11.1688 19.8313C12.3646 21.0271 13.8083 21.625 15.5 21.625C17.2063 21.625 18.6536 21.0271 19.8422 19.8313C21.0307 18.6354 21.625 17.1917 21.625 15.5C21.625 14.5667 21.4318 13.6844 21.0453 12.8531C20.6589 12.0219 20.1083 11.3146 19.3938 10.7313L20.6188 9.50625C21.4938 10.2646 22.1719 11.1615 22.6531 12.1969C23.1344 13.2323 23.375 14.3333 23.375 15.5C23.375 16.5792 23.1672 17.5964 22.7516 18.5516C22.3359 19.5068 21.7745 20.3417 21.0672 21.0563C20.3599 21.7708 19.5286 22.3359 18.5734 22.7516C17.6182 23.1672 16.5938 23.375 15.5 23.375Z" fill="white"/>
</g>
</svg>
