<svg width="16" height="16" viewBox="0 0 16 16" fill="none" xmlns="http://www.w3.org/2000/svg">
<path d="M5.49457 14.7437C6.21893 14.9625 6.95083 15.0908 7.72801 15.0908C9.72917 15.0908 11.6484 14.2958 13.0634 12.8808C14.4784 11.4658 15.2734 9.54655 15.2734 7.54539C15.2734 6.55452 15.0782 5.57334 14.699 4.6579C14.3199 3.74245 13.7641 2.91065 13.0634 2.20999C12.3628 1.50934 11.531 0.95355 10.6155 0.574359C9.70006 0.195167 8.71888 0 7.72801 0C6.73713 0 5.75596 0.195167 4.84051 0.574359C3.92506 0.95355 3.09327 1.50934 2.39261 2.20999C0.977576 3.62503 0.182617 5.54423 0.182617 7.54539C0.182617 10.7522 2.19724 13.5063 5.04185 14.5928C4.97394 14.0042 4.90603 13.0309 5.04185 12.3594L5.90957 8.63193C5.90957 8.63193 5.69075 8.1943 5.69075 7.50012C5.69075 6.45886 6.33966 5.68168 7.07911 5.68168C7.72801 5.68168 8.02982 6.15704 8.02982 6.76822C8.02982 7.41712 7.59974 8.3452 7.38092 9.23556C7.25265 9.97501 7.77328 10.6239 8.52782 10.6239C9.8709 10.6239 10.9122 9.19029 10.9122 7.16812C10.9122 5.35723 9.61436 4.11978 7.75065 4.11978C5.62284 4.11978 4.37031 5.70432 4.37031 7.37185C4.37031 8.02075 4.58158 8.6772 4.92867 9.10729C4.99658 9.15256 4.99658 9.21292 4.97394 9.3261L4.75513 10.1486C4.75513 10.2768 4.67213 10.3221 4.54385 10.2316C3.57804 9.80901 3.01968 8.43575 3.01968 7.32658C3.01968 4.94223 4.70985 2.7767 7.96946 2.7767C10.5651 2.7767 12.5872 4.64042 12.5872 7.1153C12.5872 9.71092 10.9801 11.7934 8.67873 11.7934C7.94683 11.7934 7.23001 11.4011 6.97347 10.9408L6.46793 12.7291C6.29438 13.378 5.81902 14.2457 5.49457 14.7663V14.7437Z" fill="white"/>
</svg>
