<svg width="31" height="31" viewBox="0 0 31 31" fill="none" xmlns="http://www.w3.org/2000/svg">
<rect width="31" height="31" rx="7"/>
<mask id="mask0_656_3014" style="mask-type:alpha" maskUnits="userSpaceOnUse" x="5" y="5" width="21" height="21">
<rect x="5" y="5" width="21" height="21" fill="#D9D9D9"/>
</mask>
<g mask="url(#mask0_656_3014)">
<path d="M15.5002 19.0005C15.7482 19.0005 15.956 18.9166 16.1237 18.7489C16.2914 18.5812 16.3752 18.3734 16.3752 18.1255C16.3752 17.8776 16.2914 17.6698 16.1237 17.5021C15.956 17.3343 15.7482 17.2505 15.5002 17.2505C15.2523 17.2505 15.0445 17.3343 14.8768 17.5021C14.7091 17.6698 14.6252 17.8776 14.6252 18.1255C14.6252 18.3734 14.7091 18.5812 14.8768 18.7489C15.0445 18.9166 15.2523 19.0005 15.5002 19.0005ZM14.6252 15.5005H16.3752V11.1255H14.6252V15.5005ZM15.5002 24.2505C13.4732 23.7401 11.7997 22.5771 10.4799 20.7614C9.16014 18.9458 8.50024 16.9297 8.50024 14.713V9.37549L15.5002 6.75049L22.5002 9.37549V14.713C22.5002 16.9297 21.8403 18.9458 20.5206 20.7614C19.2008 22.5771 17.5273 23.7401 15.5002 24.2505ZM15.5002 22.413C17.0169 21.9317 18.2711 20.9692 19.2627 19.5255C20.2544 18.0817 20.7502 16.4776 20.7502 14.713V10.5786L15.5002 8.60986L10.2502 10.5786V14.713C10.2502 16.4776 10.7461 18.0817 11.7377 19.5255C12.7294 20.9692 13.9836 21.9317 15.5002 22.413Z" fill="white"/>
</g>
</svg>
