<svg width="31" height="31" viewBox="0 0 31 31" fill="none" xmlns="http://www.w3.org/2000/svg">
<rect width="31" height="31" rx="7"/>
<mask id="mask0_656_2972" style="mask-type:alpha" maskUnits="userSpaceOnUse" x="5" y="5" width="21" height="21">
<rect x="5" y="5" width="21" height="21" fill="#D9D9D9"/>
</mask>
<g mask="url(#mask0_656_2972)">
<path d="M10.1188 19.9625C10.8625 19.3938 11.6938 18.9453 12.6125 18.6172C13.5313 18.2891 14.4938 18.125 15.5 18.125C16.5063 18.125 17.4688 18.2891 18.3875 18.6172C19.3063 18.9453 20.1375 19.3938 20.8812 19.9625C21.3917 19.3646 21.7891 18.6865 22.0734 17.9281C22.3578 17.1698 22.5 16.3604 22.5 15.5C22.5 13.5604 21.8182 11.9089 20.4547 10.5453C19.0911 9.18177 17.4396 8.5 15.5 8.5C13.5604 8.5 11.9089 9.18177 10.5453 10.5453C9.18177 11.9089 8.5 13.5604 8.5 15.5C8.5 16.3604 8.64219 17.1698 8.92656 17.9281C9.21094 18.6865 9.60833 19.3646 10.1188 19.9625ZM15.5 16.375C14.6396 16.375 13.9141 16.0797 13.3234 15.4891C12.7328 14.8984 12.4375 14.1729 12.4375 13.3125C12.4375 12.4521 12.7328 11.7266 13.3234 11.1359C13.9141 10.5453 14.6396 10.25 15.5 10.25C16.3604 10.25 17.0859 10.5453 17.6766 11.1359C18.2672 11.7266 18.5625 12.4521 18.5625 13.3125C18.5625 14.1729 18.2672 14.8984 17.6766 15.4891C17.0859 16.0797 16.3604 16.375 15.5 16.375ZM15.5 24.25C14.2896 24.25 13.1521 24.0203 12.0875 23.5609C11.0229 23.1016 10.0969 22.4781 9.30938 21.6906C8.52187 20.9031 7.89844 19.9771 7.43906 18.9125C6.97969 17.8479 6.75 16.7104 6.75 15.5C6.75 14.2896 6.97969 13.1521 7.43906 12.0875C7.89844 11.0229 8.52187 10.0969 9.30938 9.30938C10.0969 8.52187 11.0229 7.89844 12.0875 7.43906C13.1521 6.97969 14.2896 6.75 15.5 6.75C16.7104 6.75 17.8479 6.97969 18.9125 7.43906C19.9771 7.89844 20.9031 8.52187 21.6906 9.30938C22.4781 10.0969 23.1016 11.0229 23.5609 12.0875C24.0203 13.1521 24.25 14.2896 24.25 15.5C24.25 16.7104 24.0203 17.8479 23.5609 18.9125C23.1016 19.9771 22.4781 20.9031 21.6906 21.6906C20.9031 22.4781 19.9771 23.1016 18.9125 23.5609C17.8479 24.0203 16.7104 24.25 15.5 24.25ZM15.5 22.5C16.2729 22.5 17.0021 22.387 17.6875 22.1609C18.3729 21.9349 19 21.6104 19.5688 21.1875C19 20.7646 18.3729 20.4401 17.6875 20.2141C17.0021 19.988 16.2729 19.875 15.5 19.875C14.7271 19.875 13.9979 19.988 13.3125 20.2141C12.6271 20.4401 12 20.7646 11.4313 21.1875C12 21.6104 12.6271 21.9349 13.3125 22.1609C13.9979 22.387 14.7271 22.5 15.5 22.5ZM15.5 14.625C15.8792 14.625 16.1927 14.501 16.4406 14.2531C16.6885 14.0052 16.8125 13.6917 16.8125 13.3125C16.8125 12.9333 16.6885 12.6198 16.4406 12.3719C16.1927 12.124 15.8792 12 15.5 12C15.1208 12 14.8073 12.124 14.5594 12.3719C14.3115 12.6198 14.1875 12.9333 14.1875 13.3125C14.1875 13.6917 14.3115 14.0052 14.5594 14.2531C14.8073 14.501 15.1208 14.625 15.5 14.625Z" fill="white"/>
</g>
</svg>