<svg width="31" height="31" viewBox="0 0 31 31" fill="none" xmlns="http://www.w3.org/2000/svg">
<rect width="31" height="31" rx="7"/>
<mask id="mask0_656_2984" style="mask-type:alpha" maskUnits="userSpaceOnUse" x="6" y="6" width="20" height="20">
<rect x="6" y="6" width="20" height="20" fill="#D9D9D9"/>
</mask>
<g mask="url(#mask0_656_2984)">
<path d="M6.83325 22.6668V20.3335C6.83325 19.8613 6.95478 19.4272 7.19784 19.0314C7.44089 18.6356 7.76381 18.3335 8.16659 18.1252C9.0277 17.6946 9.9027 17.3717 10.7916 17.1564C11.6805 16.9411 12.5833 16.8335 13.4999 16.8335C14.4166 16.8335 15.3194 16.9411 16.2083 17.1564C17.0971 17.3717 17.9721 17.6946 18.8333 18.1252C19.236 18.3335 19.5589 18.6356 19.802 19.0314C20.0451 19.4272 20.1666 19.8613 20.1666 20.3335V22.6668H6.83325ZM21.8333 22.6668V20.1668C21.8333 19.5557 21.6631 18.9689 21.3228 18.4064C20.9826 17.8439 20.4999 17.3613 19.8749 16.9585C20.5833 17.0418 21.2499 17.1842 21.8749 17.3856C22.4999 17.587 23.0833 17.8335 23.6249 18.1252C24.1249 18.4029 24.5069 18.712 24.7708 19.0522C25.0346 19.3925 25.1666 19.7641 25.1666 20.1668V22.6668H21.8333ZM13.4999 16.0002C12.5833 16.0002 11.7985 15.6738 11.1458 15.021C10.493 14.3682 10.1666 13.5835 10.1666 12.6668C10.1666 11.7502 10.493 10.9654 11.1458 10.3127C11.7985 9.65989 12.5833 9.3335 13.4999 9.3335C14.4166 9.3335 15.2013 9.65989 15.8541 10.3127C16.5069 10.9654 16.8333 11.7502 16.8333 12.6668C16.8333 13.5835 16.5069 14.3682 15.8541 15.021C15.2013 15.6738 14.4166 16.0002 13.4999 16.0002ZM21.8333 12.6668C21.8333 13.5835 21.5069 14.3682 20.8541 15.021C20.2013 15.6738 19.4166 16.0002 18.4999 16.0002C18.3471 16.0002 18.1527 15.9828 17.9166 15.9481C17.6805 15.9134 17.486 15.8752 17.3333 15.8335C17.7083 15.3891 17.9964 14.896 18.1978 14.3543C18.3992 13.8127 18.4999 13.2502 18.4999 12.6668C18.4999 12.0835 18.3992 11.521 18.1978 10.9793C17.9964 10.4377 17.7083 9.94461 17.3333 9.50016C17.5277 9.43072 17.7221 9.38558 17.9166 9.36475C18.111 9.34391 18.3055 9.3335 18.4999 9.3335C19.4166 9.3335 20.2013 9.65989 20.8541 10.3127C21.5069 10.9654 21.8333 11.7502 21.8333 12.6668ZM8.49992 21.0002H18.4999V20.3335C18.4999 20.1807 18.4617 20.0418 18.3853 19.9168C18.3089 19.7918 18.2083 19.6946 18.0833 19.6252C17.3333 19.2502 16.5763 18.9689 15.8124 18.7814C15.0485 18.5939 14.2777 18.5002 13.4999 18.5002C12.7221 18.5002 11.9513 18.5939 11.1874 18.7814C10.4235 18.9689 9.66659 19.2502 8.91659 19.6252C8.79159 19.6946 8.69089 19.7918 8.6145 19.9168C8.53811 20.0418 8.49992 20.1807 8.49992 20.3335V21.0002ZM13.4999 14.3335C13.9583 14.3335 14.3506 14.1703 14.677 13.8439C15.0034 13.5175 15.1666 13.1252 15.1666 12.6668C15.1666 12.2085 15.0034 11.8161 14.677 11.4897C14.3506 11.1634 13.9583 11.0002 13.4999 11.0002C13.0416 11.0002 12.6492 11.1634 12.3228 11.4897C11.9964 11.8161 11.8333 12.2085 11.8333 12.6668C11.8333 13.1252 11.9964 13.5175 12.3228 13.8439C12.6492 14.1703 13.0416 14.3335 13.4999 14.3335Z" fill="white"/>
</g>
</svg>
