<svg width="16" height="16" viewBox="0 0 16 16" fill="none" xmlns="http://www.w3.org/2000/svg">
<path d="M7.81883 0C11.9904 0 15.3642 3.37387 15.3642 7.54539C15.3642 11.7169 11.9904 15.0908 7.81883 15.0908C3.64731 15.0908 0.273438 11.7169 0.273438 7.54539C0.273438 3.37387 3.64731 0 7.81883 0ZM6.4391 11.5229C9.78063 11.5229 11.6131 8.75266 11.6131 6.34891V6.11177C11.9688 5.85307 12.2814 5.52969 12.5185 5.1632C12.1952 5.30333 11.8394 5.40034 11.473 5.45424C11.8502 5.22788 12.1413 4.87217 12.2706 4.45178C11.9149 4.65659 11.5269 4.80749 11.1172 4.89373C10.7831 4.53801 10.3088 4.32243 9.79141 4.32243C8.78895 4.32243 7.96974 5.14165 7.96974 6.1441C7.96974 6.28423 7.98052 6.42436 8.02363 6.55371C6.51455 6.47826 5.16716 5.75606 4.2725 4.65659C4.12159 4.92606 4.02458 5.23866 4.02458 5.57281C4.02458 6.198 4.34795 6.75852 4.83301 7.08189C4.53119 7.08189 4.25094 6.99566 4.0138 6.85553V6.87709C4.0138 7.76097 4.63899 8.49396 5.46898 8.66642C5.31807 8.70954 5.15638 8.7311 4.9947 8.7311C4.87613 8.7311 4.76834 8.72032 4.64977 8.69876C4.87613 9.42096 5.55521 9.94914 6.34209 9.95992C5.7169 10.445 4.93002 10.736 4.07847 10.736C3.92756 10.736 3.78743 10.736 3.64731 10.7145C4.44496 11.2319 5.4043 11.5337 6.42832 11.5337" fill="white"/>
</svg>
