<svg width="22" height="22" viewBox="0 0 22 22" fill="none" xmlns="http://www.w3.org/2000/svg">
<path d="M9.9998 21.9498V19.9498C7.91647 19.7165 6.12897 18.854 4.6373 17.3623C3.14564 15.8706 2.28314 14.0831 2.0498 11.9998H0.0498047V9.9998H2.0498C2.28314 7.91647 3.14564 6.12897 4.6373 4.6373C6.12897 3.14564 7.91647 2.28314 9.9998 2.0498V0.0498047H11.9998V2.0498C14.0831 2.28314 15.8706 3.14564 17.3623 4.6373C18.854 6.12897 19.7165 7.91647 19.9498 9.9998H21.9498V11.9998H19.9498C19.7165 14.0831 18.854 15.8706 17.3623 17.3623C15.8706 18.854 14.0831 19.7165 11.9998 19.9498V21.9498H9.9998ZM10.9998 17.9998C12.9331 17.9998 14.5831 17.3165 15.9498 15.9498C17.3165 14.5831 17.9998 12.9331 17.9998 10.9998C17.9998 9.06647 17.3165 7.41647 15.9498 6.0498C14.5831 4.68314 12.9331 3.9998 10.9998 3.9998C9.06647 3.9998 7.41647 4.68314 6.0498 6.0498C4.68314 7.41647 3.9998 9.06647 3.9998 10.9998C3.9998 12.9331 4.68314 14.5831 6.0498 15.9498C7.41647 17.3165 9.06647 17.9998 10.9998 17.9998ZM10.9998 14.9998C9.8998 14.9998 8.95814 14.6081 8.1748 13.8248C7.39147 13.0415 6.9998 12.0998 6.9998 10.9998C6.9998 9.8998 7.39147 8.95814 8.1748 8.1748C8.95814 7.39147 9.8998 6.9998 10.9998 6.9998C12.0998 6.9998 13.0415 7.39147 13.8248 8.1748C14.6081 8.95814 14.9998 9.8998 14.9998 10.9998C14.9998 12.0998 14.6081 13.0415 13.8248 13.8248C13.0415 14.6081 12.0998 14.9998 10.9998 14.9998ZM10.9998 12.9998C11.5498 12.9998 12.0206 12.804 12.4123 12.4123C12.804 12.0206 12.9998 11.5498 12.9998 10.9998C12.9998 10.4498 12.804 9.97897 12.4123 9.58731C12.0206 9.19564 11.5498 8.9998 10.9998 8.9998C10.4498 8.9998 9.97897 9.19564 9.58731 9.58731C9.19564 9.97897 8.9998 10.4498 8.9998 10.9998C8.9998 11.5498 9.19564 12.0206 9.58731 12.4123C9.97897 12.804 10.4498 12.9998 10.9998 12.9998Z" fill="#111111"/>
</svg>
